<svg id="catapult-logo" data-name="catapult-logo" xmlns="http://www.w3.org/2000/svg" viewBox="0 0 447.91 355.04">
  <defs>
    <style>
      .cls-1 {
        fill: #263f99;
      }

      .cls-2 {
        fill: none;
      }

      .cls-3 {
        fill: #fff;
      }

      .cls-4 {
        fill: #ac3924;
      }

      .cls-5 {
        fill: #2ba8e0;
      }

      .cls-6 {
        fill: #2ca7df;
      }
    </style>
  </defs>
  <title>catapult logo</title>
  <g>
    <path class="cls-1" d="M438.65,262.81a140.78,140.78,0,0,0-3.64-29c14.74-19,43.16-67.57,38.43-154.75a7,7,0,0,0-3.36-5.55,7.41,7.41,0,0,0-6.61-.54l-124.12,50.2a216.9,216.9,0,0,0-178.68,0L36.54,73a7.4,7.4,0,0,0-6.61.54,7,7,0,0,0-3.36,5.55C21.84,166.29,50.26,214.84,65,233.86a140.68,140.68,0,0,0-3.65,29l-32.87,31.9a6.85,6.85,0,0,0,.35,10.21l78.46,66.66c35.89,35.55,87.89,55.93,142.71,55.93s106.81-20.38,142.71-55.93l78.46-66.66a6.85,6.85,0,0,0,.35-10.21Z" transform="translate(-26.04 -72.48)"/>
    <g>
      <path class="cls-2" d="M438.65,262.81a140.78,140.78,0,0,0-3.64-29c14.74-19,43.16-67.57,38.43-154.75a7,7,0,0,0-3.36-5.55,7.41,7.41,0,0,0-6.61-.54l-124.12,50.2a216.91,216.91,0,0,0-178.68,0L36.54,73a7.4,7.4,0,0,0-6.61.54,7,7,0,0,0-3.36,5.55C21.84,166.29,50.26,214.84,65,233.86a140.68,140.68,0,0,0-3.65,29l-32.87,31.9a6.86,6.86,0,0,0,.35,10.21l67.52,57.36,94.46-91.68a46.26,46.26,0,0,0,14.26-33.41c0-18.7,15.68-33.92,35-33.92h20c19.27,0,35,15.22,35,33.92a46.26,46.26,0,0,0,14.26,33.41l94.46,91.68,67.52-57.36a6.86,6.86,0,0,0,.35-10.21Z" transform="translate(-26.04 -72.48)"/>
      <path class="cls-3" d="M294.94,237.19c0-18.7-15.68-33.92-35-33.92H240c-19.27,0-35,15.22-35,33.92a46.26,46.26,0,0,1-14.26,33.41L96.35,362.28l10.95,9.3c35.89,35.55,87.89,55.93,142.71,55.93s106.81-20.38,142.71-55.93l10.95-9.3-94.46-91.68A46.26,46.26,0,0,1,294.94,237.19Z" transform="translate(-26.04 -72.48)"/>
    </g>
    <path class="cls-4" d="M252.4,383.8H247.6c-10.62,0-19.22-8.35-19.22-18.66V352.31l21.62-21,21.62,21v12.83C271.62,375.44,263,383.8,252.4,383.8Z" transform="translate(-26.04 -72.48)"/>
    <path class="cls-1" d="M320.62,320.72a5.75,5.75,0,0,0-5.74-5.64h-0.11a5.75,5.75,0,0,0-5.64,5.85c0,0.11,0,11.34-7.24,18.73-4.49,4.58-11,6.89-19.45,6.89s-14.9-2.3-19.38-6.83c-6.87-6.94-7.28-17.28-7.31-18.65,0-.13,0-0.23,0-0.29v-16L274,287a4.75,4.75,0,0,0-3.48-8.14H229.43A4.75,4.75,0,0,0,226,287l18.3,17.76v16c0,0.06,0,.15,0,0.27,0,1.35-.42,11.72-7.31,18.68-4.49,4.53-11,6.83-19.38,6.83s-14.9-2.3-19.38-6.83c-7.34-7.41-7.31-18.71-7.31-18.8a5.75,5.75,0,0,0-5.64-5.85h-0.11a5.75,5.75,0,0,0-5.74,5.64c0,0.65-.18,16.08,10.53,27,6.73,6.86,16,10.34,27.65,10.34s20.92-3.48,27.65-10.34a33.37,33.37,0,0,0,4.78-6.21,33.37,33.37,0,0,0,4.78,6.21c6.73,6.86,16,10.34,27.65,10.34s20.92-3.48,27.65-10.34C320.8,336.8,320.63,321.38,320.62,320.72Z" transform="translate(-26.04 -72.48)"/>
    <path class="cls-5" d="M447.69,117.29a5.17,5.17,0,0,0-5.06-.62l-75.68,31.48a5.17,5.17,0,0,0-.72,9.18c0.28,0.17,28.13,17.55,41.15,50a5.17,5.17,0,0,0,8.12,2c1.15-1,28.12-24.24,34.26-87.41A5.17,5.17,0,0,0,447.69,117.29Z" transform="translate(-26.04 -72.48)"/>
    <path class="cls-5" d="M136.23,152.53a5.17,5.17,0,0,0-3.17-4.37L57.38,116.68A5.17,5.17,0,0,0,50.24,122c6.14,63.17,33.12,86.45,34.26,87.41a5.17,5.17,0,0,0,8.12-2c13-32.25,40.79-49.76,41.16-50A5.17,5.17,0,0,0,136.23,152.53Z" transform="translate(-26.04 -72.48)"/>
    <ellipse class="cls-5" cx="250.99" cy="232.61" rx="5.41" ry="5.25"/>
    <ellipse class="cls-5" cx="272.61" cy="232.61" rx="5.41" ry="5.25"/>
    <ellipse class="cls-5" cx="261.8" cy="253.6" rx="5.41" ry="5.25"/>
    <ellipse class="cls-5" cx="196.93" cy="232.61" rx="5.41" ry="5.25"/>
    <ellipse class="cls-5" cx="175.3" cy="232.61" rx="5.41" ry="5.25"/>
    <ellipse class="cls-5" cx="186.12" cy="253.6" rx="5.41" ry="5.25"/>
    <path class="cls-5" d="M325.68,305.59a5.75,5.75,0,0,1-1.09-11.39l54.06-10.49A5.75,5.75,0,0,1,380.84,295l-54.06,10.49A5.81,5.81,0,0,1,325.68,305.59Z" transform="translate(-26.04 -72.48)"/>
    <path class="cls-5" d="M401.36,326.58H336.49a5.75,5.75,0,0,1,0-11.49h64.87A5.75,5.75,0,0,1,401.36,326.58Z" transform="translate(-26.04 -72.48)"/>
    <path class="cls-5" d="M174.32,305.59a5.81,5.81,0,0,1-1.1-.11L119.16,295a5.75,5.75,0,0,1,2.19-11.28l54.06,10.49A5.75,5.75,0,0,1,174.32,305.59Z" transform="translate(-26.04 -72.48)"/>
    <path class="cls-5" d="M163.51,326.58H98.64a5.75,5.75,0,0,1,0-11.49h64.87A5.75,5.75,0,0,1,163.51,326.58Z" transform="translate(-26.04 -72.48)"/>
  </g>
  <circle class="cls-3" cx="145.57" cy="149.08" r="24.33"/>
  <circle class="cls-3" cx="302.9" cy="149.08" r="24.33"/>
  <circle class="cls-6" cx="152.13" cy="159.59" r="12.5"/>
  <circle class="cls-6" cx="295.64" cy="158.59" r="12.5"/>
</svg>
